<svg width="29" height="29" viewBox="0 0 29 29" fill="none" xmlns="http://www.w3.org/2000/svg">
<path d="M12.5808 7.50565C12.4996 7.4439 12.3862 7.4202 12.2907 7.37712C12.2576 7.47693 12.2002 7.58176 12.2002 7.68588C12.1909 8.11814 12.1909 8.55111 12.1952 8.9884C12.2002 9.2074 12.1097 9.36393 11.9194 9.46877C11.653 9.62099 11.3917 9.77321 11.1303 9.92975C10.9594 10.0346 10.7835 10.0346 10.6119 9.93908C10.3311 9.78255 10.0604 9.61596 9.78471 9.4544C9.60377 9.34957 9.52335 9.19806 9.52335 8.98409C9.53268 8.52814 9.53268 8.07146 9.52335 7.61551C9.52335 7.53437 9.48529 7.41589 9.42857 7.38717C9.37615 7.35845 9.26198 7.41087 9.19592 7.46329C7.83668 8.50444 7.82734 10.5666 9.18156 11.6652C9.61885 12.0214 9.82349 12.4587 9.82349 13.0295C9.81415 15.249 9.81846 17.4691 9.82349 19.6886C9.82349 20.1496 10.1136 20.5344 10.5365 20.6723C10.9501 20.8152 11.4254 20.691 11.6724 20.3205C11.801 20.1302 11.8864 19.8782 11.8907 19.6505C11.9144 18.5239 11.9001 17.3973 11.9001 16.2715C11.9001 15.1456 11.9094 14.0994 11.9001 13.0108C11.895 12.4501 12.1047 12.0178 12.537 11.666C13.8675 10.5918 13.8869 8.54824 12.58 7.50709L12.5808 7.50565ZM10.8553 20.0491C10.553 20.0419 10.3276 19.6426 10.6385 19.3461C10.958 19.2061 11.2351 19.3892 11.2351 19.6735C11.2301 19.8782 11.0592 20.0491 10.8546 20.0491H10.8553Z" fill="#4C4E64" fill-opacity="0.87"/>
<path d="M17.5345 19.4847C17.5998 19.8358 17.6343 20.1273 17.7119 20.4059C17.8045 20.7369 18.1491 20.813 18.6266 20.617C19.5457 20.7506 19.932 20.8389 20.057 20.3327C20.1194 20.0785 20.1309 19.8107 20.146 19.5471C20.1604 19.3087 20.1489 19.0682 20.1489 18.7602C19.3957 19.4653 18.5247 19.5543 17.5338 19.4847H17.5345Z" fill="#4C4E64" fill-opacity="0.87"/>
<path d="M20.7578 11.2911C20.5905 11.2911 20.421 11.2725 20.2573 11.2947C19.7518 11.3637 19.4251 11.811 19.5924 12.203C19.7159 12.4924 19.9557 12.6583 20.2623 12.6827C20.579 12.7078 20.9006 12.7107 21.2173 12.687C21.6467 12.6547 21.954 12.3452 21.9526 11.9898C21.9504 11.6351 21.6359 11.3306 21.213 11.289C21.0622 11.2739 20.9093 11.2868 20.7578 11.2868C20.7578 11.2883 20.7578 11.2904 20.7578 11.2919V11.2911Z" fill="#4C4E64" fill-opacity="0.87"/>
<path d="M19.387 12.8385C19.2822 12.7674 19.1874 12.6719 19.1257 12.5678C18.6072 11.6983 18.1276 10.8043 17.5711 9.96349C17.0053 9.1083 16.1832 8.6423 15.1284 8.66599C14.834 8.67102 14.5345 8.67102 14.2394 8.66599C14.0542 8.66599 13.9831 8.73277 14.0398 8.91802C14.0585 8.97475 14.0635 9.0365 14.0685 9.09897C14.0829 9.2555 14.1633 9.31725 14.3249 9.31294C14.6954 9.30792 15.0709 9.28422 15.4421 9.32731C16.1788 9.41275 16.7159 9.83137 17.0965 10.4489C17.4771 11.0671 17.8332 11.694 18.1944 12.3165C18.2181 12.3546 18.2274 12.3976 18.2561 12.473H12.8328C12.4953 12.473 12.4623 12.5018 12.4623 12.8342C12.4623 14.788 12.4623 16.741 12.4673 18.6991C12.4673 18.9512 12.486 19.0179 12.6719 19.0316V19.0366L18.6941 18.9842C18.7272 18.9792 18.7559 18.9749 18.7846 18.9698C19.8258 18.7752 20.5244 17.872 20.5287 16.8164C20.5337 16.1846 20.5287 15.552 20.5287 14.9201C20.5287 14.0168 20.1245 13.3375 19.3878 12.8385H19.387ZM19.5917 15.6949C19.0546 16.056 18.4557 16.232 17.8095 16.265C17.7047 16.2557 17.6006 16.2557 17.4957 16.2363C16.9112 16.1271 16.8064 15.8801 17.187 15.4234C17.6767 14.8339 18.2848 14.3967 19.0216 14.164C19.4876 14.0118 19.9579 14.3162 20.0053 14.7916C20.0483 15.1671 19.9148 15.4809 19.5917 15.6949Z" fill="#4C4E64" fill-opacity="0.87"/>
<path d="M6.78546 22.9772C7.14663 23.3384 7.49919 23.7096 7.87401 24.0571C8.02839 24.2 8.08152 24.3142 8.00828 24.526C7.83021 25.038 7.70958 25.57 7.53796 26.0849C8.33929 26.5437 9.14206 26.9997 9.9398 27.4642C10.0963 27.5554 10.199 27.5224 10.3161 27.3982C10.6392 27.0521 10.9766 26.7196 11.2998 26.3735C11.5094 26.1495 11.6681 26.2249 12.3438 26.6105C13.1889 26.627 13.3799 26.6421 13.4532 26.9961C13.5594 27.5059 13.6901 28.0099 13.8301 28.5973C14.8239 28.593 15.8112 28.6231 16.7949 28.5513C17.0132 27.964 17.0972 27.3393 17.286 26.7433C17.8655 26.5688 18.45 26.4066 19.0395 26.268C19.1328 26.2457 19.2815 26.3003 19.3526 26.3714C19.6879 26.7045 20.0088 27.0535 20.3277 27.4032C20.4325 27.5181 20.5323 27.564 20.6773 27.4793C21.4442 27.0348 22.2139 26.5961 22.9758 26.1438C23.0282 26.1129 23.0612 25.9786 23.0426 25.9082C22.9162 25.4329 22.7798 24.959 22.6318 24.4894C22.5816 24.3307 22.5988 24.2345 22.7273 24.1131C23.1144 23.7491 23.4741 23.3578 23.8597 22.9923C23.9293 22.9262 24.0823 22.8946 24.1778 22.9191C24.6165 23.0325 25.0509 23.1646 25.4832 23.3032C25.8551 23.4224 26.0131 23.2946 26.2278 22.1845C26.9968 21.1864 27.4865 20.9265 27.0966 20.584C26.7555 20.2846 26.4374 19.9593 26.1007 19.6556C25.98 19.5464 25.9327 19.4567 25.9844 19.2843C26.1366 18.776 26.2536 18.2576 26.4044 17.7492C26.4317 17.6558 26.5394 17.5453 26.6313 17.5194C27.177 17.3643 27.7299 17.2358 28.2835 17.1152C28.2799 16.1867 28.2763 15.259 28.2835 14.3306C28.285 14.1446 28.1952 14.0822 28.0351 14.0448C27.5741 13.9393 27.1167 13.8172 26.6543 13.7167C26.4999 13.6829 26.4331 13.6183 26.3951 13.4625C26.2558 12.8859 26.0799 12.3187 25.9528 11.7392C26.3261 11.3436 26.7218 10.968 27.1203 10.5968C27.4133 10.324 27.1505 10.1164 26.2551 9.24905C26.0253 8.22513 25.9858 7.75266 25.5478 7.89627C25.117 8.03772 24.6732 8.1404 24.2446 8.2876C24.0356 8.3594 23.9186 8.31129 23.7742 8.15404C23.4353 7.78569 23.0706 7.44103 22.7001 7.09709C24.4966 9.43933 25.3467 12.0717 25.1285 15.0221C24.9102 17.9667 23.7024 20.4619 21.5433 22.4595C17.551 26.1531 11.35 26.5502 6.78546 22.9765V22.9772Z" fill="#4C4E64" fill-opacity="0.87"/>
<path d="M3.08038 16.8279C3.29005 16.8085 3.50187 16.7827 3.71585 16.7511C3.8056 16.9356 3.88028 17.1065 3.93987 17.2645C3.99947 17.4225 4.04614 17.5589 4.07917 17.6745C4.15241 17.9294 4.18616 18.1836 4.18113 18.4363C4.17611 18.6891 4.12297 18.9303 4.02245 19.1608C3.92192 19.3913 3.77329 19.5795 3.57798 19.7259C3.38268 19.8724 3.15434 19.9823 2.89369 20.0569C2.6115 20.1374 2.33578 20.1625 2.06723 20.1302C1.79869 20.0986 1.55455 20.0117 1.33627 19.871C1.11727 19.7302 0.931296 19.5428 0.776918 19.3088C0.62254 19.0747 0.5055 18.8183 0.425797 18.539C0.346813 18.2633 0.292243 17.9531 0.262085 17.6084C0.412155 17.5603 0.517707 17.5244 0.579458 17.5014L0.847286 17.4052C0.850876 17.612 0.862365 17.7822 0.879598 17.915C0.897549 18.0479 0.92268 18.1721 0.955709 18.2884C1.00741 18.4708 1.08567 18.6374 1.18835 18.7896C1.29175 18.9411 1.42172 19.0646 1.57968 19.158C1.73765 19.252 1.91142 19.3088 2.10242 19.3289C2.29341 19.349 2.48154 19.3324 2.66679 19.2793C2.88795 19.2161 3.07392 19.117 3.22543 18.9813C3.37693 18.8456 3.47961 18.669 3.5349 18.45C3.59019 18.231 3.57798 17.9825 3.499 17.7054C3.42576 17.4483 3.28646 17.1561 3.08254 16.8279H3.08038ZM4.15241 17.2839C4.42455 17.3406 4.69453 17.3909 4.9638 17.4361C5.00688 17.6005 5.04278 17.7319 5.07078 17.831C5.09304 17.9093 5.13254 18.0414 5.18998 18.2281L4.79506 18.073C4.66868 18.0227 4.50928 17.9624 4.31828 17.8921C4.30033 17.7901 4.27233 17.6738 4.23499 17.5431C4.22063 17.4921 4.19334 17.406 4.15313 17.2846L4.15241 17.2839Z" fill="#FFAA00"/>
<path d="M3.74602 16.2829C3.47963 16.2808 3.25632 16.2829 3.07753 16.2887C2.7939 16.2973 2.46719 16.3109 2.09812 16.3318C1.72905 16.3526 1.37793 16.3749 1.0462 16.3993C1.03399 16.2262 1.02394 16.0963 1.01604 16.0101C1.00886 15.9304 0.995217 15.8019 0.97583 15.6245C1.28459 15.6209 1.57898 15.6137 1.85902 15.603C2.13905 15.5922 2.45858 15.5742 2.81903 15.5484C3.17949 15.5225 3.46455 15.5003 3.67422 15.4816C3.68499 15.6425 3.69504 15.7717 3.70366 15.8686C3.71227 15.9605 3.72591 16.0991 3.74674 16.2837L3.74602 16.2829Z" fill="#FFAA00"/>
<path d="M3.58803 14.9467L2.90733 14.821L1.5962 14.6207L0.471751 14.4721C0.267828 14.4469 0.110578 14.4283 0 14.4168C0.0229772 14.2329 0.0387739 14.1023 0.0466723 14.0247C0.0560068 13.9335 0.0674953 13.8129 0.079702 13.6635L0.932013 13.81L2.29269 14.0183L3.31159 14.1525L3.66774 14.1927C3.64763 14.3485 3.63255 14.4713 3.62322 14.5611C3.61245 14.663 3.60096 14.7916 3.58803 14.946V14.9467ZM2.1735 13.9479L1.57681 13.3404C1.52511 13.2887 1.46192 13.2263 1.38581 13.1537C1.3097 13.0812 1.21205 12.9893 1.09214 12.8787C1.11511 12.6963 1.13091 12.5628 1.14024 12.4788C1.15245 12.3625 1.16609 12.216 1.18189 12.0379L2.08662 13.0137L2.25966 13.1896C2.47795 13.0826 3.01504 12.7789 3.87166 12.2777C3.85155 12.4357 3.83504 12.5714 3.82355 12.6841C3.81134 12.7969 3.79842 12.9369 3.78406 13.1049C3.60599 13.1896 3.4631 13.2586 3.35467 13.3124C3.24625 13.3663 3.15147 13.4158 3.07033 13.4625L2.3803 13.8438C2.36163 13.8545 2.29269 13.889 2.17422 13.9479H2.1735Z" fill="#FFAA00"/>
<path d="M3.78548 12.142C3.52771 11.9848 3.13781 11.7593 2.6158 11.4663C2.09378 11.1734 1.69743 10.9587 1.42673 10.823C1.49709 10.6901 1.55382 10.5817 1.59618 10.4984C1.64429 10.4022 1.69527 10.2967 1.74913 10.1825L2.12179 10.3929C2.07296 10.3053 2.03562 10.2284 2.00977 10.1631C1.98392 10.0978 1.96813 10.0217 1.96238 9.93549C1.95664 9.84932 1.96382 9.75598 1.98608 9.65473C2.00834 9.55349 2.0428 9.45584 2.09019 9.36106C2.1261 9.28997 2.16702 9.22463 2.2137 9.16503C2.26037 9.10544 2.30991 9.05446 2.36161 9.01209C2.41331 8.96973 2.46501 8.93741 2.51599 8.91444C2.56697 8.89146 2.61867 8.87638 2.67109 8.8692C2.7235 8.86202 2.79531 8.8613 2.88722 8.86776C2.84916 8.8053 2.819 8.75001 2.79674 8.7019C2.77448 8.65379 2.75582 8.59563 2.74074 8.5267C2.72566 8.45776 2.71991 8.38668 2.7235 8.31272C2.72709 8.23876 2.74002 8.16122 2.76228 8.07864C2.78526 7.99607 2.81685 7.91421 2.85706 7.83379C2.92599 7.69593 3.01359 7.57817 3.11986 7.47908C3.22613 7.37999 3.34532 7.32039 3.47744 7.29957C3.60956 7.27875 3.74743 7.3046 3.89175 7.37712C3.96786 7.41517 4.07629 7.47693 4.21774 7.56165C4.35919 7.64638 4.59256 7.78066 4.91783 7.96304C5.2431 8.14614 5.49585 8.284 5.67679 8.37663C5.61576 8.49079 5.56262 8.59204 5.51811 8.68108C5.46569 8.78591 5.40537 8.90941 5.33788 9.05158C5.14114 8.93454 4.93434 8.81391 4.71749 8.68897L4.1883 8.3874C4.05475 8.31057 3.94058 8.2481 3.8458 8.19999C3.73306 8.14326 3.63828 8.11813 3.56217 8.1246C3.48606 8.13106 3.42215 8.15547 3.37046 8.19784C3.31804 8.2402 3.27496 8.29549 3.24121 8.36298C3.20531 8.43407 3.18664 8.50516 3.18448 8.57696C3.18233 8.64804 3.19884 8.72416 3.23475 8.80458C3.26993 8.885 3.32091 8.95824 3.38769 9.02573C3.45447 9.09323 3.55715 9.16934 3.69573 9.25407C3.83431 9.33952 4.01956 9.44507 4.25077 9.57144L4.90203 9.91897C4.8331 10.0489 4.77637 10.1574 4.73257 10.2442C4.68877 10.3311 4.63205 10.4482 4.56168 10.5961C4.44536 10.5243 4.2041 10.3828 3.8379 10.1732C3.4717 9.96349 3.22326 9.82563 3.09186 9.75957C3.02221 9.72438 2.96046 9.70069 2.9066 9.68705C2.85275 9.67412 2.79603 9.6734 2.73499 9.68561C2.67468 9.69782 2.62226 9.72151 2.57846 9.75741C2.53466 9.7926 2.49804 9.84071 2.46788 9.90102C2.41259 10.0116 2.39967 10.1272 2.43054 10.2478C2.46142 10.3685 2.52748 10.4783 2.63016 10.5781C2.73284 10.6779 2.95543 10.8251 3.29865 11.019C3.64187 11.2129 3.91688 11.3622 4.1244 11.4663C4.04828 11.61 3.99156 11.7184 3.95422 11.7931C3.91186 11.8763 3.85513 11.9934 3.78405 12.1435L3.78548 12.142Z" fill="#FFAA00"/>
<path d="M4.68018 6.48963C4.60551 6.38336 4.55237 6.31012 4.51934 6.26991C4.48703 6.2297 4.4382 6.16795 4.3743 6.08394C4.50067 5.8714 4.61987 5.69117 4.73116 5.54253C4.84246 5.3939 4.95806 5.25819 5.07726 5.13469C5.21225 4.99467 5.35298 4.88194 5.49875 4.79649C5.64451 4.71105 5.78452 4.6694 5.92023 4.67227C6.05522 4.67515 6.19021 4.74121 6.32377 4.86973C6.39629 4.9401 6.57149 5.12895 6.84866 5.43627C7.12654 5.74359 7.42165 6.05234 7.73471 6.36253C7.6385 6.4566 7.5509 6.54492 7.47263 6.62605C7.39724 6.7036 7.31107 6.79623 7.2127 6.90322C7.07484 6.73735 6.90969 6.5521 6.71726 6.34602L6.26633 5.86134C6.25125 5.94033 6.23761 5.99921 6.22612 6.03655C6.21391 6.0746 6.19811 6.11409 6.17801 6.15646C6.1579 6.19882 6.12057 6.27062 6.06528 6.37259C6.00999 6.47455 5.96691 6.55712 5.93675 6.62175C5.90659 6.68637 5.8829 6.74812 5.86638 6.807C5.84987 6.86588 5.84197 6.92189 5.84197 6.97358C5.84197 7.02528 5.85058 7.07124 5.86782 7.11145C5.88505 7.15094 5.90946 7.18684 5.94249 7.21915C5.99563 7.27085 6.05738 7.29957 6.12631 7.30604C6.19524 7.3125 6.25987 7.29957 6.3209 7.26726C6.38193 7.23495 6.44296 7.18684 6.50472 7.12365C6.54421 7.08273 6.58226 7.03677 6.6196 6.98579C6.65694 6.93481 6.70002 6.85798 6.74813 6.75745C6.7948 6.85439 6.87307 6.9901 6.98221 7.16458C6.91041 7.26942 6.85009 7.35055 6.80198 7.408C6.75387 7.46544 6.70792 7.51642 6.66412 7.56238C6.50902 7.7225 6.36039 7.83379 6.2175 7.89483C6.07461 7.95586 5.93244 7.96591 5.79099 7.92355C5.64953 7.88118 5.53106 7.81441 5.43556 7.72178C5.38099 7.66864 5.33575 7.60689 5.30129 7.53653C5.26682 7.46616 5.24456 7.39005 5.23523 7.31034C5.22661 7.23064 5.22948 7.14089 5.24456 7.04252C5.25964 6.94414 5.30128 6.82064 5.37022 6.67201C5.43843 6.52337 5.54111 6.33956 5.67754 6.11912C5.71416 6.06096 5.75006 5.99849 5.78596 5.93243C5.82186 5.86637 5.84771 5.81036 5.86423 5.76584C5.88074 5.72133 5.88864 5.67681 5.88792 5.63229C5.88792 5.58777 5.88074 5.54828 5.8671 5.51453C5.85346 5.48007 5.83407 5.45063 5.80822 5.42621C5.75867 5.3781 5.70051 5.35369 5.63517 5.35297C5.56911 5.35225 5.50521 5.37092 5.44202 5.4097C5.37883 5.44847 5.31708 5.49873 5.25677 5.5612C5.03274 5.79313 4.8403 6.1026 4.68018 6.48963Z" fill="#FFAA00"/>
<path d="M8.12459 5.96187C7.96447 5.65239 7.82374 5.38816 7.70167 5.16772C7.5279 4.8525 7.27659 4.41019 6.94845 3.8415C6.72298 3.45233 6.56071 3.17804 6.46018 3.01935L6.32806 2.8104C6.51547 2.69623 6.63897 2.62084 6.69714 2.5835C6.73591 2.55909 6.8508 2.48441 7.04036 2.36019L7.73542 3.61676L8.59132 5.10812L8.83689 5.51166L8.48649 5.72635C8.44484 5.75292 8.32421 5.83119 8.12459 5.96115V5.96187ZM7.91565 3.82571L8.02981 2.8779L8.12172 1.99471C8.12747 1.9308 8.13465 1.82023 8.1447 1.66298L8.55111 1.41238C8.56762 1.40233 8.69543 1.31904 8.93454 1.16394L8.66743 3.03012L8.62937 3.35826L8.89864 3.471C8.93741 3.48607 9.20883 3.58732 9.71218 3.77401L10.9005 4.2077L10.4984 4.45543C10.4281 4.49994 10.283 4.59329 10.064 4.73618L9.77823 4.60262C9.72366 4.57606 9.63104 4.53513 9.49964 4.47984L8.33857 3.99373L7.91493 3.82499L7.91565 3.82571Z" fill="#FFAA00"/>
<path d="M11.5331 1.24149C11.7299 1.18979 11.9266 1.1704 12.1226 1.18189C12.3187 1.19338 12.4946 1.24077 12.6511 1.32335C12.8076 1.40592 12.9383 1.52224 13.046 1.67303C13.1537 1.82382 13.2306 1.99112 13.2794 2.17566C13.3304 2.37096 13.3462 2.56771 13.3268 2.76732C13.3074 2.96622 13.2521 3.1486 13.1595 3.31446C13.0676 3.48033 12.9355 3.62107 12.7631 3.73667C12.5908 3.85227 12.3984 3.93772 12.1844 3.99373C11.9855 4.04543 11.7895 4.06553 11.5949 4.05333C11.4003 4.04112 11.2244 3.99229 11.0671 3.90756C10.9099 3.82284 10.7756 3.70364 10.6657 3.55142C10.5552 3.39919 10.4762 3.23045 10.4281 3.04592C10.3785 2.85779 10.362 2.66967 10.3771 2.48298C10.3922 2.29629 10.446 2.11893 10.5386 1.95235C10.6313 1.78504 10.767 1.63928 10.9465 1.51363C11.126 1.38797 11.322 1.2975 11.5338 1.24221L11.5331 1.24149ZM11.671 1.77068C11.5224 1.80946 11.3996 1.88054 11.3019 1.98394C11.2043 2.08734 11.1454 2.21802 11.126 2.37743C11.1066 2.53683 11.1188 2.70054 11.1633 2.87C11.2021 3.01935 11.2603 3.14573 11.3378 3.24984C11.4154 3.35396 11.5166 3.42791 11.6423 3.47243C11.7679 3.51695 11.9036 3.51911 12.0508 3.48105C12.2009 3.44156 12.323 3.37047 12.417 3.26564C12.5111 3.16152 12.5678 3.0294 12.5872 2.87C12.6066 2.71059 12.5937 2.54329 12.5477 2.36881C12.5104 2.22664 12.4544 2.10313 12.3797 1.9983C12.305 1.89347 12.2059 1.81951 12.0824 1.77715C11.9589 1.73406 11.8225 1.73263 11.6724 1.77212L11.671 1.77068Z" fill="#FFAA00"/>
<path d="M13.9307 3.63614C13.9536 3.33672 13.9788 2.79891 14.0068 2.02199C14.0348 1.24508 14.0499 0.575148 14.0513 0.0100525C14.2358 0.0114886 14.3665 0.0114886 14.4448 0.0100525C14.5496 0.00861641 14.6767 0.00502626 14.8275 0L14.7765 0.969351L14.7112 3.13136L14.7069 3.62537C14.5618 3.62394 14.4383 3.62322 14.3371 3.62537C14.3033 3.62537 14.1676 3.62896 13.9307 3.63543V3.63614Z" fill="#FFAA00"/>
<path d="M15.8457 1.55383C15.8952 1.43392 15.9282 1.34919 15.9447 1.30037C15.9613 1.25154 15.9871 1.17758 16.0237 1.07777C16.2707 1.07059 16.4869 1.07418 16.6721 1.08783C16.8574 1.10147 17.034 1.1266 17.202 1.16035C17.393 1.19912 17.5632 1.25728 17.714 1.33411C17.8648 1.41094 17.9746 1.50716 18.045 1.62277C18.1154 1.73837 18.1319 1.887 18.0945 2.06939C18.0744 2.16847 18.0091 2.41763 17.8992 2.81686C17.7887 3.21609 17.6874 3.63112 17.5941 4.06194C17.4627 4.03178 17.342 4.00521 17.2307 3.98224C17.1245 3.9607 17.0003 3.937 16.8574 3.91115C16.9227 3.70579 16.9909 3.46669 17.0613 3.19383L17.2279 2.55334C17.1532 2.5835 17.0965 2.60361 17.0584 2.61366C17.0204 2.62371 16.978 2.63233 16.9313 2.63807C16.8847 2.64382 16.8042 2.651 16.6886 2.65889C16.573 2.66679 16.4797 2.67541 16.4093 2.68474C16.3389 2.69408 16.2743 2.707 16.2154 2.72495C16.1566 2.7429 16.1056 2.76588 16.0618 2.79389C16.018 2.82189 15.9842 2.8542 15.9598 2.88938C15.9354 2.92529 15.9189 2.9655 15.9096 3.01073C15.8945 3.08325 15.9031 3.15075 15.9347 3.2125C15.9663 3.27425 16.0122 3.32164 16.0718 3.35539C16.1314 3.38914 16.2047 3.41499 16.2916 3.43294C16.3468 3.44443 16.4064 3.45161 16.4696 3.45592C16.5328 3.46022 16.6204 3.4552 16.731 3.44156C16.6743 3.53275 16.6017 3.67205 16.5134 3.85802C16.3863 3.85371 16.2851 3.84653 16.2111 3.83719C16.1372 3.82786 16.069 3.81637 16.0065 3.80345C15.7882 3.75893 15.6144 3.69287 15.4859 3.60527C15.3574 3.51767 15.2727 3.40278 15.2324 3.26061C15.1922 3.11844 15.1851 2.98273 15.2116 2.85276C15.2267 2.77809 15.2547 2.707 15.2956 2.63951C15.3366 2.57201 15.3883 2.51313 15.4507 2.46287C15.5132 2.41261 15.5907 2.36737 15.6819 2.32716C15.7731 2.28695 15.8995 2.25607 16.0618 2.23382C16.2241 2.21156 16.4337 2.19935 16.6929 2.19576C16.7619 2.19576 16.8337 2.19217 16.9091 2.18714C16.9845 2.1814 17.0448 2.17422 17.0914 2.16345C17.1381 2.1534 17.1798 2.13616 17.2171 2.11175C17.2544 2.08805 17.2839 2.06077 17.3054 2.03061C17.327 2.00045 17.3413 1.96814 17.3485 1.93368C17.3621 1.86618 17.3521 1.80443 17.3169 1.74842C17.2824 1.69242 17.2315 1.64862 17.1647 1.61559C17.0979 1.58327 17.0225 1.55814 16.9371 1.54091C16.6211 1.47629 16.2571 1.48059 15.8442 1.55383H15.8457Z" fill="#FFAA00"/>
<path d="M17.1963 5.1713C17.2788 4.91712 17.3363 4.73258 17.3672 4.61842C17.4878 4.76202 17.6163 4.86542 17.7528 4.92861C17.7944 4.94799 17.8396 4.96236 17.8877 4.97241C17.9359 4.98174 17.9832 4.98605 18.0285 4.9839C18.0586 4.98246 18.0917 4.97528 18.1276 4.96236C18.1635 4.95015 18.218 4.92143 18.2913 4.87763C18.3645 4.83383 18.4313 4.78787 18.4923 4.73976C18.5426 4.69812 18.6008 4.64283 18.6654 4.5739L18.8427 2.87717L18.9576 1.66872C19.1249 1.74985 19.2456 1.80802 19.3188 1.84176C19.4042 1.88126 19.5163 1.93152 19.6556 1.99183C19.6276 2.14047 19.6053 2.27115 19.5888 2.38245L19.4674 3.24481C19.4301 3.51048 19.3999 3.70866 19.3762 3.84006C19.3597 3.92623 19.3353 4.03824 19.3023 4.17754C19.4179 4.05332 19.5148 3.95423 19.5924 3.87884C19.7324 3.74097 19.9234 3.55787 20.1646 3.33097L20.6651 2.86353C20.7542 2.78024 20.8482 2.68905 20.9466 2.58996C21.0895 2.66033 21.1993 2.71274 21.2747 2.74793C21.3437 2.78024 21.46 2.83194 21.6244 2.90374L19.7345 4.55164L18.9074 5.2826C18.7961 5.37523 18.6998 5.44272 18.618 5.48437C18.5505 5.52099 18.4823 5.54827 18.4141 5.56479C18.348 5.5813 18.2819 5.5892 18.2152 5.58992C18.1312 5.58992 18.0443 5.5813 17.9552 5.56335C17.8547 5.54038 17.7578 5.50735 17.6652 5.46355C17.612 5.43913 17.5402 5.39964 17.4505 5.34651C17.36 5.29265 17.2753 5.23377 17.1956 5.16987L17.1963 5.1713Z" fill="#FFAA00"/>
</svg>
